<svg width="483.3" height="280" viewBox="132 -160 483.3 440" xmlns="http://www.w3.org/2000/svg">
  <style>
    .logo {
        stroke-width: 0.25mm;
        stroke: #ffbf00;
        fill: #ffbf00;
    }
  </style>
  <g id="svgGroup" class="logo" stroke-linecap="round" fill-rule="evenodd" font-size="9pt">
    <!-- E -->
    <path d="M 0 116.189 L 77.92 116.189 L 77.92 97.949 L 20.16 97.949 L 20.16 67.229 L 72.16 67.229 L 72.16 48.989 L 20.16 48.989 L 20.16 21.149 L 75.04 21.149 L 75.04 2.909 L 0 2.909 L 0 116.189 Z" vector-effect="non-scaling-stroke"/>
    <!-- O -->
    <path d="M 91.68 60.029 C 91.68 95.389 116.64 119.069 151.52 119.069 C 186.88 118.429 211.84 94.749 211.84 59.389 C 211.84 23.069 186.88 -0.611 151.52 0.029 C 116.64 0.029 91.68 23.709 91.68 60.029 Z M 112.8 58.749 C 112.8 36.189 128.32 18.269 151.68 18.269 C 175.2 18.269 190.72 36.189 190.72 58.749 C 190.72 82.909 175.2 100.829 151.68 100.829 C 128.32 100.829 112.8 82.909 112.8 58.749 Z" vector-effect="non-scaling-stroke"/>
    <!-- C -->
    <path d="M 327.04 98.909 L 310.4 87.069 C 302.88 96.669 294.08 100.829 284.96 100.829 C 261.6 100.829 246.08 82.909 246.08 58.749 C 246.08 36.189 261.6 18.269 284.96 18.269 C 292.8 18.269 300.48 20.669 308.8 29.469 L 324.48 17.949 C 313.28 4.989 300.16 0.029 284.8 0.029 C 249.92 0.029 224.96 23.709 224.96 60.029 C 224.96 95.389 249.92 119.069 284.8 119.069 C 301.44 119.069 316.8 112.989 327.04 98.909 Z" vector-effect="non-scaling-stroke"/>
    <!-- Lightning Bolt -->
    <path
      d="M 478.8 -157.8
         L 324.3 74
         L 370   74
         L 263.4 276.6
         L 436.1 35.4
         L 390.4 35.4
         Z"
      fill="#ffbf00"
    />
    <!-- R -->
    <path d="M 456.16 116.189 L 476.32 116.189 L 476.32 68.189 L 491.04 68.189 L 517.28 116.189 L 541.6 116.189 L 511.52 66.109 C 528.32 63.709 537.76 51.709 537.76 35.389 C 537.76 9.949 517.28 2.909 495.52 2.909 L 456.16 2.909 L 456.16 116.189 Z M 476.32 50.909 L 476.32 20.189 L 493.76 20.189 C 504.16 20.189 516.64 21.789 516.64 35.229 C 516.64 49.949 503.36 50.909 492 50.909 L 476.32 50.909 Z" vector-effect="non-scaling-stroke"/>
    <!-- D -->
    <path d="M 556.96 116.189 L 599.2 116.189 C 626.4 116.189 659.2 98.269 659.2 59.549 C 659.2 21.149 631.36 2.909 601.6 2.909 L 556.96 2.909 L 556.96 116.189 Z M 577.12 97.949 L 577.12 21.149 L 595.52 21.149 C 620.16 21.149 638.08 32.029 638.08 59.549 C 638.08 87.069 617.44 97.949 592.16 97.949 L 577.12 97.949 Z" vector-effect="non-scaling-stroke"/>
    <!-- S -->
    <path d="M 685.92 88.989 L 670.72 103.709 C 680 114.749 693.76 119.069 707.84 119.069 C 730.08 119.069 749.28 107.229 749.28 82.909 C 749.28 42.589 695.52 55.549 695.52 32.829 C 695.52 22.429 704.8 18.269 714.08 18.269 C 721.92 18.269 729.6 21.149 733.92 27.229 L 748.64 11.709 C 739.84 3.389 728 0.029 716.16 0.029 C 695.2 0.029 674.4 10.909 674.4 34.269 C 674.4 74.749 728.16 60.509 728.16 85.309 C 728.16 95.709 717.6 100.829 708.32 100.829 C 699.36 100.829 690.88 96.509 685.92 88.989 Z" vector-effect="non-scaling-stroke"/>
  </g>
</svg>